<?xml version="1.0" encoding="UTF-8" standalone="no"?><svg xmlns="http://www.w3.org/2000/svg" xmlns:xlink="http://www.w3.org/1999/xlink" contentStyleType="text/css" height="513px" preserveAspectRatio="none" style="width:726px;height:513px;background:#FFFFFF;" version="1.1" viewBox="0 0 726 513" width="726px" zoomAndPan="magnify"><defs/><g><!--MD5=[04d9886427c662e5b177abab0b2b3cbf]
class Elettore--><g id="elem_Elettore"><rect fill="#F1F1F1" height="48" id="Elettore" rx="2.5" ry="2.5" style="stroke:#181818;stroke-width:0.5;" width="81" x="27" y="7"/><ellipse cx="42" cy="23" fill="#ADD1B2" rx="11" ry="11" style="stroke:#181818;stroke-width:1.0;"/><path d="M44,19.5 Q44.2031,19 44.4375,18.75 Q44.6719,18.5 44.9375,18.5 Q45.4063,18.5 45.7031,18.7813 Q46,19.0625 46,19.7188 L46,21.2813 Q46,21.9375 45.7188,22.2188 Q45.4375,22.5 45,22.5 Q44.6094,22.5 44.3594,22.3281 Q44.1094,22.1563 44,21.7031 Q43.9531,21.3906 43.7813,21.2188 Q43.4688,20.8906 42.9063,20.7031 Q42.3438,20.5 41.7813,20.5 Q41.0781,20.5 40.4844,20.7813 Q39.9063,21.0625 39.4531,21.6875 Q39,22.3125 39,23.1719 L39,24.0938 Q39,25.125 39.8438,25.8125 Q40.6875,26.5 42.1875,26.5 Q43.0781,26.5 43.7031,26.2969 Q44.0625,26.1875 44.4688,25.8281 Q44.7344,25.625 44.875,25.5625 Q45.0156,25.5 45.1875,25.5 Q45.5156,25.5 45.75,25.7656 Q46,26.0156 46,26.375 Q46,26.7188 45.6563,27.125 Q45.1563,27.7188 44.3594,28.0469 Q43.3125,28.5 42.0313,28.5 Q40.5313,28.5 39.3281,27.9063 Q38.3594,27.4375 37.6719,26.4219 Q37,25.4063 37,24.2031 L37,23.1094 Q37,21.8594 37.5938,20.7656 Q38.2031,19.6719 39.25,19.0938 Q40.3125,18.5 41.5,18.5 Q42.2188,18.5 42.8438,18.75 Q43.4688,19 44,19.5 Z " fill="#000000"/><text fill="#000000" font-family="sans-serif" font-size="14" lengthAdjust="spacing" textLength="49" x="56" y="27.8535">Elettore</text><line style="stroke:#181818;stroke-width:0.5;" x1="28" x2="107" y1="39" y2="39"/><line style="stroke:#181818;stroke-width:0.5;" x1="28" x2="107" y1="47" y2="47"/></g><!--MD5=[339f1161e85407ee61d390b24225a687]
class Utente--><g id="elem_Utente"><rect fill="#F1F1F1" height="48" id="Utente" rx="2.5" ry="2.5" style="stroke:#181818;stroke-width:0.5;" width="73" x="31" y="131"/><ellipse cx="46" cy="147" fill="#ADD1B2" rx="11" ry="11" style="stroke:#181818;stroke-width:1.0;"/><path d="M48,143.5 Q48.2031,143 48.4375,142.75 Q48.6719,142.5 48.9375,142.5 Q49.4063,142.5 49.7031,142.7813 Q50,143.0625 50,143.7188 L50,145.2813 Q50,145.9375 49.7188,146.2188 Q49.4375,146.5 49,146.5 Q48.6094,146.5 48.3594,146.3281 Q48.1094,146.1563 48,145.7031 Q47.9531,145.3906 47.7813,145.2188 Q47.4688,144.8906 46.9063,144.7031 Q46.3438,144.5 45.7813,144.5 Q45.0781,144.5 44.4844,144.7813 Q43.9063,145.0625 43.4531,145.6875 Q43,146.3125 43,147.1719 L43,148.0938 Q43,149.125 43.8438,149.8125 Q44.6875,150.5 46.1875,150.5 Q47.0781,150.5 47.7031,150.2969 Q48.0625,150.1875 48.4688,149.8281 Q48.7344,149.625 48.875,149.5625 Q49.0156,149.5 49.1875,149.5 Q49.5156,149.5 49.75,149.7656 Q50,150.0156 50,150.375 Q50,150.7188 49.6563,151.125 Q49.1563,151.7188 48.3594,152.0469 Q47.3125,152.5 46.0313,152.5 Q44.5313,152.5 43.3281,151.9063 Q42.3594,151.4375 41.6719,150.4219 Q41,149.4063 41,148.2031 L41,147.1094 Q41,145.8594 41.5938,144.7656 Q42.2031,143.6719 43.25,143.0938 Q44.3125,142.5 45.5,142.5 Q46.2188,142.5 46.8438,142.75 Q47.4688,143 48,143.5 Z " fill="#000000"/><text fill="#000000" font-family="sans-serif" font-size="14" lengthAdjust="spacing" textLength="41" x="60" y="151.8535">Utente</text><line style="stroke:#181818;stroke-width:0.5;" x1="32" x2="103" y1="163" y2="163"/><line style="stroke:#181818;stroke-width:0.5;" x1="32" x2="103" y1="171" y2="171"/></g><!--MD5=[9b01928d3f4b8c28a227be6de5367c3b]
class Gestore--><g id="elem_Gestore"><rect fill="#F1F1F1" height="48" id="Gestore" rx="2.5" ry="2.5" style="stroke:#181818;stroke-width:0.5;" width="83" x="155" y="7"/><ellipse cx="170" cy="23" fill="#ADD1B2" rx="11" ry="11" style="stroke:#181818;stroke-width:1.0;"/><path d="M172,19.5 Q172.2031,19 172.4375,18.75 Q172.6719,18.5 172.9375,18.5 Q173.4063,18.5 173.7031,18.7813 Q174,19.0625 174,19.7188 L174,21.2813 Q174,21.9375 173.7188,22.2188 Q173.4375,22.5 173,22.5 Q172.6094,22.5 172.3594,22.3281 Q172.1094,22.1563 172,21.7031 Q171.9531,21.3906 171.7813,21.2188 Q171.4688,20.8906 170.9063,20.7031 Q170.3438,20.5 169.7813,20.5 Q169.0781,20.5 168.4844,20.7813 Q167.9063,21.0625 167.4531,21.6875 Q167,22.3125 167,23.1719 L167,24.0938 Q167,25.125 167.8438,25.8125 Q168.6875,26.5 170.1875,26.5 Q171.0781,26.5 171.7031,26.2969 Q172.0625,26.1875 172.4688,25.8281 Q172.7344,25.625 172.875,25.5625 Q173.0156,25.5 173.1875,25.5 Q173.5156,25.5 173.75,25.7656 Q174,26.0156 174,26.375 Q174,26.7188 173.6563,27.125 Q173.1563,27.7188 172.3594,28.0469 Q171.3125,28.5 170.0313,28.5 Q168.5313,28.5 167.3281,27.9063 Q166.3594,27.4375 165.6719,26.4219 Q165,25.4063 165,24.2031 L165,23.1094 Q165,21.8594 165.5938,20.7656 Q166.2031,19.6719 167.25,19.0938 Q168.3125,18.5 169.5,18.5 Q170.2188,18.5 170.8438,18.75 Q171.4688,19 172,19.5 Z " fill="#000000"/><text fill="#000000" font-family="sans-serif" font-size="14" lengthAdjust="spacing" textLength="51" x="184" y="27.8535">Gestore</text><line style="stroke:#181818;stroke-width:0.5;" x1="156" x2="237" y1="39" y2="39"/><line style="stroke:#181818;stroke-width:0.5;" x1="156" x2="237" y1="47" y2="47"/></g><!--MD5=[8f63dadf5c643e74a34e53c8f0a15d23]
class Persona--><g id="elem_Persona"><rect fill="#F1F1F1" height="48" id="Persona" rx="2.5" ry="2.5" style="stroke:#181818;stroke-width:0.5;" width="85" x="7" y="240"/><ellipse cx="22" cy="256" fill="#ADD1B2" rx="11" ry="11" style="stroke:#181818;stroke-width:1.0;"/><path d="M24,252.5 Q24.2031,252 24.4375,251.75 Q24.6719,251.5 24.9375,251.5 Q25.4063,251.5 25.7031,251.7813 Q26,252.0625 26,252.7188 L26,254.2813 Q26,254.9375 25.7188,255.2188 Q25.4375,255.5 25,255.5 Q24.6094,255.5 24.3594,255.3281 Q24.1094,255.1563 24,254.7031 Q23.9531,254.3906 23.7813,254.2188 Q23.4688,253.8906 22.9063,253.7031 Q22.3438,253.5 21.7813,253.5 Q21.0781,253.5 20.4844,253.7813 Q19.9063,254.0625 19.4531,254.6875 Q19,255.3125 19,256.1719 L19,257.0938 Q19,258.125 19.8438,258.8125 Q20.6875,259.5 22.1875,259.5 Q23.0781,259.5 23.7031,259.2969 Q24.0625,259.1875 24.4688,258.8281 Q24.7344,258.625 24.875,258.5625 Q25.0156,258.5 25.1875,258.5 Q25.5156,258.5 25.75,258.7656 Q26,259.0156 26,259.375 Q26,259.7188 25.6563,260.125 Q25.1563,260.7188 24.3594,261.0469 Q23.3125,261.5 22.0313,261.5 Q20.5313,261.5 19.3281,260.9063 Q18.3594,260.4375 17.6719,259.4219 Q17,258.4063 17,257.2031 L17,256.1094 Q17,254.8594 17.5938,253.7656 Q18.2031,252.6719 19.25,252.0938 Q20.3125,251.5 21.5,251.5 Q22.2188,251.5 22.8438,251.75 Q23.4688,252 24,252.5 Z " fill="#000000"/><text fill="#000000" font-family="sans-serif" font-size="14" lengthAdjust="spacing" textLength="53" x="36" y="260.8535">Persona</text><line style="stroke:#181818;stroke-width:0.5;" x1="8" x2="91" y1="272" y2="272"/><line style="stroke:#181818;stroke-width:0.5;" x1="8" x2="91" y1="280" y2="280"/></g><!--MD5=[fd63d2935efafd8d11ac51f37e32f933]
class Votazione--><g id="elem_Votazione"><rect fill="#F1F1F1" height="48" id="Votazione" rx="2.5" ry="2.5" style="stroke:#181818;stroke-width:0.5;" width="94" x="225.5" y="131"/><ellipse cx="240.5" cy="147" fill="#ADD1B2" rx="11" ry="11" style="stroke:#181818;stroke-width:1.0;"/><path d="M242.5,143.5 Q242.7031,143 242.9375,142.75 Q243.1719,142.5 243.4375,142.5 Q243.9063,142.5 244.2031,142.7813 Q244.5,143.0625 244.5,143.7188 L244.5,145.2813 Q244.5,145.9375 244.2188,146.2188 Q243.9375,146.5 243.5,146.5 Q243.1094,146.5 242.8594,146.3281 Q242.6094,146.1563 242.5,145.7031 Q242.4531,145.3906 242.2813,145.2188 Q241.9688,144.8906 241.4063,144.7031 Q240.8438,144.5 240.2813,144.5 Q239.5781,144.5 238.9844,144.7813 Q238.4063,145.0625 237.9531,145.6875 Q237.5,146.3125 237.5,147.1719 L237.5,148.0938 Q237.5,149.125 238.3438,149.8125 Q239.1875,150.5 240.6875,150.5 Q241.5781,150.5 242.2031,150.2969 Q242.5625,150.1875 242.9688,149.8281 Q243.2344,149.625 243.375,149.5625 Q243.5156,149.5 243.6875,149.5 Q244.0156,149.5 244.25,149.7656 Q244.5,150.0156 244.5,150.375 Q244.5,150.7188 244.1563,151.125 Q243.6563,151.7188 242.8594,152.0469 Q241.8125,152.5 240.5313,152.5 Q239.0313,152.5 237.8281,151.9063 Q236.8594,151.4375 236.1719,150.4219 Q235.5,149.4063 235.5,148.2031 L235.5,147.1094 Q235.5,145.8594 236.0938,144.7656 Q236.7031,143.6719 237.75,143.0938 Q238.8125,142.5 240,142.5 Q240.7188,142.5 241.3438,142.75 Q241.9688,143 242.5,143.5 Z " fill="#000000"/><text fill="#000000" font-family="sans-serif" font-size="14" lengthAdjust="spacing" textLength="62" x="254.5" y="151.8535">Votazione</text><line style="stroke:#181818;stroke-width:0.5;" x1="226.5" x2="318.5" y1="163" y2="163"/><line style="stroke:#181818;stroke-width:0.5;" x1="226.5" x2="318.5" y1="171" y2="171"/></g><!--MD5=[162cef5f5cf46aa1bb9c06e1041e7aed]
class Elezione--><g id="elem_Elezione"><rect fill="#F1F1F1" height="48" id="Elezione" rx="2.5" ry="2.5" style="stroke:#181818;stroke-width:0.5;" width="85" x="127" y="240"/><ellipse cx="142" cy="256" fill="#ADD1B2" rx="11" ry="11" style="stroke:#181818;stroke-width:1.0;"/><path d="M144,252.5 Q144.2031,252 144.4375,251.75 Q144.6719,251.5 144.9375,251.5 Q145.4063,251.5 145.7031,251.7813 Q146,252.0625 146,252.7188 L146,254.2813 Q146,254.9375 145.7188,255.2188 Q145.4375,255.5 145,255.5 Q144.6094,255.5 144.3594,255.3281 Q144.1094,255.1563 144,254.7031 Q143.9531,254.3906 143.7813,254.2188 Q143.4688,253.8906 142.9063,253.7031 Q142.3438,253.5 141.7813,253.5 Q141.0781,253.5 140.4844,253.7813 Q139.9063,254.0625 139.4531,254.6875 Q139,255.3125 139,256.1719 L139,257.0938 Q139,258.125 139.8438,258.8125 Q140.6875,259.5 142.1875,259.5 Q143.0781,259.5 143.7031,259.2969 Q144.0625,259.1875 144.4688,258.8281 Q144.7344,258.625 144.875,258.5625 Q145.0156,258.5 145.1875,258.5 Q145.5156,258.5 145.75,258.7656 Q146,259.0156 146,259.375 Q146,259.7188 145.6563,260.125 Q145.1563,260.7188 144.3594,261.0469 Q143.3125,261.5 142.0313,261.5 Q140.5313,261.5 139.3281,260.9063 Q138.3594,260.4375 137.6719,259.4219 Q137,258.4063 137,257.2031 L137,256.1094 Q137,254.8594 137.5938,253.7656 Q138.2031,252.6719 139.25,252.0938 Q140.3125,251.5 141.5,251.5 Q142.2188,251.5 142.8438,251.75 Q143.4688,252 144,252.5 Z " fill="#000000"/><text fill="#000000" font-family="sans-serif" font-size="14" lengthAdjust="spacing" textLength="53" x="156" y="260.8535">Elezione</text><line style="stroke:#181818;stroke-width:0.5;" x1="128" x2="211" y1="272" y2="272"/><line style="stroke:#181818;stroke-width:0.5;" x1="128" x2="211" y1="280" y2="280"/></g><!--MD5=[8adb8077429386f2059895d2f390114c]
class Referendum--><g id="elem_Referendum"><rect fill="#F1F1F1" height="48" id="Referendum" rx="2.5" ry="2.5" style="stroke:#181818;stroke-width:0.5;" width="110" x="247.5" y="240"/><ellipse cx="262.5" cy="256" fill="#ADD1B2" rx="11" ry="11" style="stroke:#181818;stroke-width:1.0;"/><path d="M264.5,252.5 Q264.7031,252 264.9375,251.75 Q265.1719,251.5 265.4375,251.5 Q265.9063,251.5 266.2031,251.7813 Q266.5,252.0625 266.5,252.7188 L266.5,254.2813 Q266.5,254.9375 266.2188,255.2188 Q265.9375,255.5 265.5,255.5 Q265.1094,255.5 264.8594,255.3281 Q264.6094,255.1563 264.5,254.7031 Q264.4531,254.3906 264.2813,254.2188 Q263.9688,253.8906 263.4063,253.7031 Q262.8438,253.5 262.2813,253.5 Q261.5781,253.5 260.9844,253.7813 Q260.4063,254.0625 259.9531,254.6875 Q259.5,255.3125 259.5,256.1719 L259.5,257.0938 Q259.5,258.125 260.3438,258.8125 Q261.1875,259.5 262.6875,259.5 Q263.5781,259.5 264.2031,259.2969 Q264.5625,259.1875 264.9688,258.8281 Q265.2344,258.625 265.375,258.5625 Q265.5156,258.5 265.6875,258.5 Q266.0156,258.5 266.25,258.7656 Q266.5,259.0156 266.5,259.375 Q266.5,259.7188 266.1563,260.125 Q265.6563,260.7188 264.8594,261.0469 Q263.8125,261.5 262.5313,261.5 Q261.0313,261.5 259.8281,260.9063 Q258.8594,260.4375 258.1719,259.4219 Q257.5,258.4063 257.5,257.2031 L257.5,256.1094 Q257.5,254.8594 258.0938,253.7656 Q258.7031,252.6719 259.75,252.0938 Q260.8125,251.5 262,251.5 Q262.7188,251.5 263.3438,251.75 Q263.9688,252 264.5,252.5 Z " fill="#000000"/><text fill="#000000" font-family="sans-serif" font-size="14" lengthAdjust="spacing" textLength="78" x="276.5" y="260.8535">Referendum</text><line style="stroke:#181818;stroke-width:0.5;" x1="248.5" x2="356.5" y1="272" y2="272"/><line style="stroke:#181818;stroke-width:0.5;" x1="248.5" x2="356.5" y1="280" y2="280"/></g><!--MD5=[f884fc27599339af8f59e71707b66ff3]
class Candidato--><g id="elem_Candidato"><rect fill="#F1F1F1" height="48" id="Candidato" rx="2.5" ry="2.5" style="stroke:#181818;stroke-width:0.5;" width="97" x="60" y="349"/><ellipse cx="75" cy="365" fill="#ADD1B2" rx="11" ry="11" style="stroke:#181818;stroke-width:1.0;"/><path d="M77,361.5 Q77.2031,361 77.4375,360.75 Q77.6719,360.5 77.9375,360.5 Q78.4063,360.5 78.7031,360.7813 Q79,361.0625 79,361.7188 L79,363.2813 Q79,363.9375 78.7188,364.2188 Q78.4375,364.5 78,364.5 Q77.6094,364.5 77.3594,364.3281 Q77.1094,364.1563 77,363.7031 Q76.9531,363.3906 76.7813,363.2188 Q76.4688,362.8906 75.9063,362.7031 Q75.3438,362.5 74.7813,362.5 Q74.0781,362.5 73.4844,362.7813 Q72.9063,363.0625 72.4531,363.6875 Q72,364.3125 72,365.1719 L72,366.0938 Q72,367.125 72.8438,367.8125 Q73.6875,368.5 75.1875,368.5 Q76.0781,368.5 76.7031,368.2969 Q77.0625,368.1875 77.4688,367.8281 Q77.7344,367.625 77.875,367.5625 Q78.0156,367.5 78.1875,367.5 Q78.5156,367.5 78.75,367.7656 Q79,368.0156 79,368.375 Q79,368.7188 78.6563,369.125 Q78.1563,369.7188 77.3594,370.0469 Q76.3125,370.5 75.0313,370.5 Q73.5313,370.5 72.3281,369.9063 Q71.3594,369.4375 70.6719,368.4219 Q70,367.4063 70,366.2031 L70,365.1094 Q70,363.8594 70.5938,362.7656 Q71.2031,361.6719 72.25,361.0938 Q73.3125,360.5 74.5,360.5 Q75.2188,360.5 75.8438,360.75 Q76.4688,361 77,361.5 Z " fill="#000000"/><text fill="#000000" font-family="sans-serif" font-size="14" lengthAdjust="spacing" textLength="65" x="89" y="369.8535">Candidato</text><line style="stroke:#181818;stroke-width:0.5;" x1="61" x2="156" y1="381" y2="381"/><line style="stroke:#181818;stroke-width:0.5;" x1="61" x2="156" y1="389" y2="389"/></g><!--MD5=[f5d4caf1c71ec1925e5c803ea4204835]
class Partito--><g id="elem_Partito"><rect fill="#F1F1F1" height="48" id="Partito" rx="2.5" ry="2.5" style="stroke:#181818;stroke-width:0.5;" width="73" x="72" y="458"/><ellipse cx="87" cy="474" fill="#ADD1B2" rx="11" ry="11" style="stroke:#181818;stroke-width:1.0;"/><path d="M89,470.5 Q89.2031,470 89.4375,469.75 Q89.6719,469.5 89.9375,469.5 Q90.4063,469.5 90.7031,469.7813 Q91,470.0625 91,470.7188 L91,472.2813 Q91,472.9375 90.7188,473.2188 Q90.4375,473.5 90,473.5 Q89.6094,473.5 89.3594,473.3281 Q89.1094,473.1563 89,472.7031 Q88.9531,472.3906 88.7813,472.2188 Q88.4688,471.8906 87.9063,471.7031 Q87.3438,471.5 86.7813,471.5 Q86.0781,471.5 85.4844,471.7813 Q84.9063,472.0625 84.4531,472.6875 Q84,473.3125 84,474.1719 L84,475.0938 Q84,476.125 84.8438,476.8125 Q85.6875,477.5 87.1875,477.5 Q88.0781,477.5 88.7031,477.2969 Q89.0625,477.1875 89.4688,476.8281 Q89.7344,476.625 89.875,476.5625 Q90.0156,476.5 90.1875,476.5 Q90.5156,476.5 90.75,476.7656 Q91,477.0156 91,477.375 Q91,477.7188 90.6563,478.125 Q90.1563,478.7188 89.3594,479.0469 Q88.3125,479.5 87.0313,479.5 Q85.5313,479.5 84.3281,478.9063 Q83.3594,478.4375 82.6719,477.4219 Q82,476.4063 82,475.2031 L82,474.1094 Q82,472.8594 82.5938,471.7656 Q83.2031,470.6719 84.25,470.0938 Q85.3125,469.5 86.5,469.5 Q87.2188,469.5 87.8438,469.75 Q88.4688,470 89,470.5 Z " fill="#000000"/><text fill="#000000" font-family="sans-serif" font-size="14" lengthAdjust="spacing" textLength="41" x="101" y="478.8535">Partito</text><line style="stroke:#181818;stroke-width:0.5;" x1="73" x2="144" y1="490" y2="490"/><line style="stroke:#181818;stroke-width:0.5;" x1="73" x2="144" y1="498" y2="498"/></g><!--MD5=[539396deb38377f0905d57514ebafbde]
class SessioneVoto--><g id="elem_SessioneVoto"><rect fill="#F1F1F1" height="48" id="SessioneVoto" rx="2.5" ry="2.5" style="stroke:#181818;stroke-width:0.5;" width="119" x="327" y="7"/><ellipse cx="342" cy="23" fill="#ADD1B2" rx="11" ry="11" style="stroke:#181818;stroke-width:1.0;"/><path d="M344,19.5 Q344.2031,19 344.4375,18.75 Q344.6719,18.5 344.9375,18.5 Q345.4063,18.5 345.7031,18.7813 Q346,19.0625 346,19.7188 L346,21.2813 Q346,21.9375 345.7188,22.2188 Q345.4375,22.5 345,22.5 Q344.6094,22.5 344.3594,22.3281 Q344.1094,22.1563 344,21.7031 Q343.9531,21.3906 343.7813,21.2188 Q343.4688,20.8906 342.9063,20.7031 Q342.3438,20.5 341.7813,20.5 Q341.0781,20.5 340.4844,20.7813 Q339.9063,21.0625 339.4531,21.6875 Q339,22.3125 339,23.1719 L339,24.0938 Q339,25.125 339.8438,25.8125 Q340.6875,26.5 342.1875,26.5 Q343.0781,26.5 343.7031,26.2969 Q344.0625,26.1875 344.4688,25.8281 Q344.7344,25.625 344.875,25.5625 Q345.0156,25.5 345.1875,25.5 Q345.5156,25.5 345.75,25.7656 Q346,26.0156 346,26.375 Q346,26.7188 345.6563,27.125 Q345.1563,27.7188 344.3594,28.0469 Q343.3125,28.5 342.0313,28.5 Q340.5313,28.5 339.3281,27.9063 Q338.3594,27.4375 337.6719,26.4219 Q337,25.4063 337,24.2031 L337,23.1094 Q337,21.8594 337.5938,20.7656 Q338.2031,19.6719 339.25,19.0938 Q340.3125,18.5 341.5,18.5 Q342.2188,18.5 342.8438,18.75 Q343.4688,19 344,19.5 Z " fill="#000000"/><text fill="#000000" font-family="sans-serif" font-size="14" lengthAdjust="spacing" textLength="87" x="356" y="27.8535">SessioneVoto</text><line style="stroke:#181818;stroke-width:0.5;" x1="328" x2="445" y1="39" y2="39"/><line style="stroke:#181818;stroke-width:0.5;" x1="328" x2="445" y1="47" y2="47"/></g><!--MD5=[81b634bf6535b8fdf80644b9f4416872]
class Scheda--><g id="elem_Scheda"><rect fill="#F1F1F1" height="48" id="Scheda" rx="2.5" ry="2.5" style="stroke:#181818;stroke-width:0.5;" width="80" x="431.5" y="131"/><ellipse cx="446.5" cy="147" fill="#ADD1B2" rx="11" ry="11" style="stroke:#181818;stroke-width:1.0;"/><path d="M448.5,143.5 Q448.7031,143 448.9375,142.75 Q449.1719,142.5 449.4375,142.5 Q449.9063,142.5 450.2031,142.7813 Q450.5,143.0625 450.5,143.7188 L450.5,145.2813 Q450.5,145.9375 450.2188,146.2188 Q449.9375,146.5 449.5,146.5 Q449.1094,146.5 448.8594,146.3281 Q448.6094,146.1563 448.5,145.7031 Q448.4531,145.3906 448.2813,145.2188 Q447.9688,144.8906 447.4063,144.7031 Q446.8438,144.5 446.2813,144.5 Q445.5781,144.5 444.9844,144.7813 Q444.4063,145.0625 443.9531,145.6875 Q443.5,146.3125 443.5,147.1719 L443.5,148.0938 Q443.5,149.125 444.3438,149.8125 Q445.1875,150.5 446.6875,150.5 Q447.5781,150.5 448.2031,150.2969 Q448.5625,150.1875 448.9688,149.8281 Q449.2344,149.625 449.375,149.5625 Q449.5156,149.5 449.6875,149.5 Q450.0156,149.5 450.25,149.7656 Q450.5,150.0156 450.5,150.375 Q450.5,150.7188 450.1563,151.125 Q449.6563,151.7188 448.8594,152.0469 Q447.8125,152.5 446.5313,152.5 Q445.0313,152.5 443.8281,151.9063 Q442.8594,151.4375 442.1719,150.4219 Q441.5,149.4063 441.5,148.2031 L441.5,147.1094 Q441.5,145.8594 442.0938,144.7656 Q442.7031,143.6719 443.75,143.0938 Q444.8125,142.5 446,142.5 Q446.7188,142.5 447.3438,142.75 Q447.9688,143 448.5,143.5 Z " fill="#000000"/><text fill="#000000" font-family="sans-serif" font-size="14" lengthAdjust="spacing" textLength="48" x="460.5" y="151.8535">Scheda</text><line style="stroke:#181818;stroke-width:0.5;" x1="432.5" x2="510.5" y1="163" y2="163"/><line style="stroke:#181818;stroke-width:0.5;" x1="432.5" x2="510.5" y1="171" y2="171"/></g><!--MD5=[08f4fa626223d55602dffdb776456f8a]
class SchedaReferendum--><g id="elem_SchedaReferendum"><rect fill="#F1F1F1" height="48" id="SchedaReferendum" rx="2.5" ry="2.5" style="stroke:#181818;stroke-width:0.5;" width="158" x="392.5" y="240"/><ellipse cx="407.5" cy="256" fill="#ADD1B2" rx="11" ry="11" style="stroke:#181818;stroke-width:1.0;"/><path d="M409.5,252.5 Q409.7031,252 409.9375,251.75 Q410.1719,251.5 410.4375,251.5 Q410.9063,251.5 411.2031,251.7813 Q411.5,252.0625 411.5,252.7188 L411.5,254.2813 Q411.5,254.9375 411.2188,255.2188 Q410.9375,255.5 410.5,255.5 Q410.1094,255.5 409.8594,255.3281 Q409.6094,255.1563 409.5,254.7031 Q409.4531,254.3906 409.2813,254.2188 Q408.9688,253.8906 408.4063,253.7031 Q407.8438,253.5 407.2813,253.5 Q406.5781,253.5 405.9844,253.7813 Q405.4063,254.0625 404.9531,254.6875 Q404.5,255.3125 404.5,256.1719 L404.5,257.0938 Q404.5,258.125 405.3438,258.8125 Q406.1875,259.5 407.6875,259.5 Q408.5781,259.5 409.2031,259.2969 Q409.5625,259.1875 409.9688,258.8281 Q410.2344,258.625 410.375,258.5625 Q410.5156,258.5 410.6875,258.5 Q411.0156,258.5 411.25,258.7656 Q411.5,259.0156 411.5,259.375 Q411.5,259.7188 411.1563,260.125 Q410.6563,260.7188 409.8594,261.0469 Q408.8125,261.5 407.5313,261.5 Q406.0313,261.5 404.8281,260.9063 Q403.8594,260.4375 403.1719,259.4219 Q402.5,258.4063 402.5,257.2031 L402.5,256.1094 Q402.5,254.8594 403.0938,253.7656 Q403.7031,252.6719 404.75,252.0938 Q405.8125,251.5 407,251.5 Q407.7188,251.5 408.3438,251.75 Q408.9688,252 409.5,252.5 Z " fill="#000000"/><text fill="#000000" font-family="sans-serif" font-size="14" lengthAdjust="spacing" textLength="126" x="421.5" y="260.8535">SchedaReferendum</text><line style="stroke:#181818;stroke-width:0.5;" x1="393.5" x2="549.5" y1="272" y2="272"/><line style="stroke:#181818;stroke-width:0.5;" x1="393.5" x2="549.5" y1="280" y2="280"/></g><!--MD5=[320a75195f10a55d5b11fc8692fa110f]
class SchedaElezione--><g id="elem_SchedaElezione"><rect fill="#F1F1F1" height="48" id="SchedaElezione" rx="2.5" ry="2.5" style="stroke:#181818;stroke-width:0.5;" width="133" x="586" y="240"/><ellipse cx="601" cy="256" fill="#ADD1B2" rx="11" ry="11" style="stroke:#181818;stroke-width:1.0;"/><path d="M603,252.5 Q603.2031,252 603.4375,251.75 Q603.6719,251.5 603.9375,251.5 Q604.4063,251.5 604.7031,251.7813 Q605,252.0625 605,252.7188 L605,254.2813 Q605,254.9375 604.7188,255.2188 Q604.4375,255.5 604,255.5 Q603.6094,255.5 603.3594,255.3281 Q603.1094,255.1563 603,254.7031 Q602.9531,254.3906 602.7813,254.2188 Q602.4688,253.8906 601.9063,253.7031 Q601.3438,253.5 600.7813,253.5 Q600.0781,253.5 599.4844,253.7813 Q598.9063,254.0625 598.4531,254.6875 Q598,255.3125 598,256.1719 L598,257.0938 Q598,258.125 598.8438,258.8125 Q599.6875,259.5 601.1875,259.5 Q602.0781,259.5 602.7031,259.2969 Q603.0625,259.1875 603.4688,258.8281 Q603.7344,258.625 603.875,258.5625 Q604.0156,258.5 604.1875,258.5 Q604.5156,258.5 604.75,258.7656 Q605,259.0156 605,259.375 Q605,259.7188 604.6563,260.125 Q604.1563,260.7188 603.3594,261.0469 Q602.3125,261.5 601.0313,261.5 Q599.5313,261.5 598.3281,260.9063 Q597.3594,260.4375 596.6719,259.4219 Q596,258.4063 596,257.2031 L596,256.1094 Q596,254.8594 596.5938,253.7656 Q597.2031,252.6719 598.25,252.0938 Q599.3125,251.5 600.5,251.5 Q601.2188,251.5 601.8438,251.75 Q602.4688,252 603,252.5 Z " fill="#000000"/><text fill="#000000" font-family="sans-serif" font-size="14" lengthAdjust="spacing" textLength="101" x="615" y="260.8535">SchedaElezione</text><line style="stroke:#181818;stroke-width:0.5;" x1="587" x2="718" y1="272" y2="272"/><line style="stroke:#181818;stroke-width:0.5;" x1="587" x2="718" y1="280" y2="280"/></g><!--MD5=[9172af8154153c0e6c08ea2a000ceb5b]
link Elettore to Utente--><g id="link_Elettore_Utente"><path codeLine="2" d="M67.5,55.23 C67.5,70.92 67.5,92.1 67.5,110.83 " fill="none" id="Elettore-to-Utente" style="stroke:#181818;stroke-width:1.0;"/><polygon fill="none" points="74.5,110.85,67.5,130.85,60.5,110.85,74.5,110.85" style="stroke:#181818;stroke-width:1.0;"/></g><!--MD5=[fc66f25e64813dd430463b2bac1ab756]
link Gestore to Utente--><g id="link_Gestore_Utente"><path codeLine="3" d="M171.93,55.23 C153.46,72.7 127.79,96.98 106.52,117.1 " fill="none" id="Gestore-to-Utente" style="stroke:#181818;stroke-width:1.0;"/><polygon fill="none" points="111.32,122.2,91.98,130.85,101.7,112.02,111.32,122.2" style="stroke:#181818;stroke-width:1.0;"/></g><!--MD5=[f2751297ded4ef5baca1350efa4b2e88]
link Utente to Persona--><g id="link_Utente_Persona"><path codeLine="4" d="M63.59,179.22 C61.59,191.14 59.08,206.04 56.74,219.97 " fill="none" id="Utente-to-Persona" style="stroke:#181818;stroke-width:1.0;"/><polygon fill="none" points="63.62,221.27,53.4,239.83,49.81,218.94,63.62,221.27" style="stroke:#181818;stroke-width:1.0;"/></g><!--MD5=[e12ea4124b2bfdb6180d34725b36c9e4]
link Gestore to Votazione--><g id="link_Gestore_Votazione"><path codeLine="5" d="M189.83,55.05 C187.08,69.13 186.05,87.03 193.5,101 C200.57,114.26 212.6,124.79 225.16,132.86 " fill="none" id="Gestore-Votazione" style="stroke:#181818;stroke-width:1.0;"/><polygon fill="#000000" points="200.5672,97.8144,199.5036,88.3635,194.1516,90.7936,200.5672,97.8144" style="stroke:#000000;stroke-width:1.0;"/><text fill="#000000" font-family="sans-serif" font-size="13" lengthAdjust="spacing" textLength="21" x="207.5" y="97.7686">apri</text><text fill="#000000" font-family="sans-serif" font-size="13" lengthAdjust="spacing" textLength="7" x="180.2239" y="74.8422">1</text><text fill="#000000" font-family="sans-serif" font-size="13" lengthAdjust="spacing" textLength="7" x="210.3751" y="126.2066">1</text></g><!--MD5=[e12ea4124b2bfdb6180d34725b36c9e4]
link Gestore to Votazione--><g id="link_Gestore_Votazione"><path codeLine="6" d="M213.38,55.16 C219.87,64.32 227.22,75.03 233.5,85 C242.96,100.02 252.79,117.42 260.21,130.99 " fill="none" id="Gestore-Votazione-1" style="stroke:#181818;stroke-width:1.0;"/><polygon fill="#000000" points="251.1272,97.5159,248.8751,88.2758,243.874,91.3643,251.1272,97.5159" style="stroke:#000000;stroke-width:1.0;"/><text fill="#000000" font-family="sans-serif" font-size="13" lengthAdjust="spacing" textLength="34" x="257.5" y="97.7686">chiudi</text><text fill="#000000" font-family="sans-serif" font-size="13" lengthAdjust="spacing" textLength="7" x="209.6414" y="74.5876">1</text><text fill="#000000" font-family="sans-serif" font-size="13" lengthAdjust="spacing" textLength="7" x="248.7691" y="120.1106">1</text></g><!--MD5=[a4fce785a081f3930a250291293501f9]
reverse link Votazione to Elezione--><g id="link_Votazione_Elezione"><path codeLine="7" d="M236.17,193.74 C221.38,209.1 204.76,226.38 191.81,239.83 " fill="none" id="Votazione-backto-Elezione" style="stroke:#181818;stroke-width:1.0;"/><polygon fill="none" points="231.24,188.77,250.15,179.22,241.32,198.48,231.24,188.77" style="stroke:#181818;stroke-width:1.0;"/></g><!--MD5=[fa1839211f6179a6869a7a77404133c4]
reverse link Votazione to Referendum--><g id="link_Votazione_Referendum"><path codeLine="8" d="M284.44,198.59 C288.39,212.66 292.62,227.78 296,239.83 " fill="none" id="Votazione-backto-Referendum" style="stroke:#181818;stroke-width:1.0;"/><polygon fill="none" points="277.67,200.36,279.01,179.22,291.15,196.59,277.67,200.36" style="stroke:#181818;stroke-width:1.0;"/></g><!--MD5=[837f3a69e4d0df65cce10a85aa04eba6]
reverse link Persona to Candidato--><g id="link_Persona_Candidato"><path codeLine="9" d="M72.18,306.13 C80.16,320.6 88.85,336.36 95.72,348.83 " fill="none" id="Persona-backto-Candidato" style="stroke:#181818;stroke-width:1.0;"/><polygon fill="none" points="65.83,309.11,62.3,288.22,78.09,302.35,65.83,309.11" style="stroke:#181818;stroke-width:1.0;"/></g><!--MD5=[2575e583061427cb51f81bb13dd8e334]
link Candidato to Partito--><g id="link_Candidato_Partito"><path codeLine="10" d="M108.5,397.22 C108.5,415.16 108.5,439.89 108.5,457.83 " fill="none" id="Candidato-Partito" style="stroke:#181818;stroke-width:1.0;"/><text fill="#000000" font-family="sans-serif" font-size="13" lengthAdjust="spacing" textLength="20" x="86.0625" y="416.6622">1..*</text><text fill="#000000" font-family="sans-serif" font-size="13" lengthAdjust="spacing" textLength="7" x="100.5594" y="447.292">1</text></g><!--MD5=[9f26b269a1fb53aaeec67ce6d0b2e11d]
link Elezione to Candidato--><g id="link_Elezione_Candidato"><path codeLine="11" d="M156.26,288.22 C146.03,306.16 131.94,330.89 121.71,348.83 " fill="none" id="Elezione-Candidato" style="stroke:#181818;stroke-width:1.0;"/><text fill="#000000" font-family="sans-serif" font-size="13" lengthAdjust="spacing" textLength="7" x="145.1796" y="307.6622">1</text><text fill="#000000" font-family="sans-serif" font-size="13" lengthAdjust="spacing" textLength="20" x="102.5727" y="338.292">1..*</text></g><!--MD5=[85ac9f7e993e60c1179b572ac66f9e6c]
link SessioneVoto to Votazione--><g id="link_SessioneVoto_Votazione"><path codeLine="12" d="M364.79,55.23 C344.5,76.94 314.39,109.17 294.13,130.85 " fill="none" id="SessioneVoto-Votazione" style="stroke:#181818;stroke-width:1.0;"/><text fill="#000000" font-family="sans-serif" font-size="13" lengthAdjust="spacing" textLength="20" x="337.0607" y="74.6747">1..*</text><text fill="#000000" font-family="sans-serif" font-size="13" lengthAdjust="spacing" textLength="7" x="292.0024" y="120.3173">1</text></g><!--MD5=[8fdcb360eb8a54ee95277d911754fa68]
link SessioneVoto to Scheda--><g id="link_SessioneVoto_Scheda"><path codeLine="13" d="M402.69,55.23 C417.81,76.94 440.27,109.17 455.37,130.85 " fill="none" id="SessioneVoto-Scheda" style="stroke:#181818;stroke-width:1.0;"/><text fill="#000000" font-family="sans-serif" font-size="13" lengthAdjust="spacing" textLength="7" x="398.7832" y="74.6747">1</text><text fill="#000000" font-family="sans-serif" font-size="13" lengthAdjust="spacing" textLength="20" x="428.3476" y="120.3173">1..*</text></g><!--MD5=[c242ba0e965b8a381ed00a08deaae949]
reverse link Scheda to SchedaReferendum--><g id="link_Scheda_SchedaReferendum"><path codeLine="14" d="M471.5,199.58 C471.5,213.36 471.5,228.06 471.5,239.83 " fill="none" id="Scheda-backto-SchedaReferendum" style="stroke:#181818;stroke-width:1.0;"/><polygon fill="none" points="464.5,199.22,471.5,179.22,478.5,199.22,464.5,199.22" style="stroke:#181818;stroke-width:1.0;"/></g><!--MD5=[2255bfca77837d9dfd2afa149cd1c85b]
reverse link Scheda to SchedaElezione--><g id="link_Scheda_SchedaElezione"><path codeLine="15" d="M528.12,189.47 C555.8,205.83 588.41,225.11 613.3,239.83 " fill="none" id="Scheda-backto-SchedaElezione" style="stroke:#181818;stroke-width:1.0;"/><polygon fill="none" points="524.43,195.42,510.77,179.22,531.55,183.37,524.43,195.42" style="stroke:#181818;stroke-width:1.0;"/></g><!--MD5=[cff962b9041a80c9e1898ac3e5c2aa1d]
@startuml

Elettore - -|> Utente
Gestore - -|> Utente
Utente - -|> Persona
Gestore "1" - - "1" Votazione: apri >
Gestore "1" - - "1" Votazione: chiudi >
Votazione <|- - Elezione
Votazione <|- - Referendum
Persona <|- - Candidato
Candidato "1..*" - - "1" Partito
Elezione "1" - - "1..*" Candidato
SessioneVoto "1..*" - - "1" Votazione
SessioneVoto "1" - - "1..*" Scheda
Scheda <|- - SchedaReferendum
Scheda <|- - SchedaElezione

@enduml

PlantUML version 1.2022.7(Mon Aug 22 19:01:30 CEST 2022)
(GPL source distribution)
Java Runtime: OpenJDK Runtime Environment
JVM: OpenJDK 64-Bit Server VM
Default Encoding: Cp1252
Language: it
Country: IT
--></g></svg>